<svg xmlns="http://www.w3.org/2000/svg" viewBox="0 0 44.68 92.95"><defs><style>.cls-1{fill:#1d1d1b;}.cls-2{fill:#e52421;}.cls-3{fill:#040202;}.cls-4{fill:#fff;}</style></defs><g id="Layer_2" data-name="Layer 2"><g id="iraqpad_logo" data-name="iraqpad logo"><g id="iraqpad_logo_WHITE" data-name="iraqpad logo WHITE"><path class="cls-1" d="M2.3,93h0A2.27,2.27,0,0,1,0,90.68L.1,45.16A9,9,0,0,1,9.16,36H19.21c.54,0,1,.45,1,1.25v38A17.86,17.86,0,0,1,2.3,93Z"/><path class="cls-2" d="M.09,46.56a49.09,49.09,0,0,1,.3-9.24C2.63,18.09,29,14.57,38.76,27.2a29.4,29.4,0,0,1,5.92,16.44C44.69,56.37,39,60.58,32.46,64c-3.63,1.71-5.66,1.65-6.74,1.28a1.68,1.68,0,0,1-1.09-1.6V30.38A2.57,2.57,0,0,0,23.09,28,2,2,0,0,0,21.4,28a2.3,2.3,0,0,0-1.24,2.1v6.69"/><circle class="cls-3" cx="20.2" cy="6.88" r="6.88"/><polygon class="cls-4" points="20.2 40.73 0.09 50.35 0.09 52.82 20.2 43.24 20.2 40.73"/></g></g></g></svg>