<?xml version="1.0" encoding="UTF-8"?>
<!DOCTYPE svg PUBLIC "-//W3C//DTD SVG 1.1//EN" "http://www.w3.org/Graphics/SVG/1.1/DTD/svg11.dtd">
<svg xmlns="http://www.w3.org/2000/svg" version="1.1" width="180px" height="372px" style="shape-rendering:geometricPrecision; text-rendering:geometricPrecision; image-rendering:optimizeQuality; fill-rule:evenodd; clip-rule:evenodd" xmlns:xlink="http://www.w3.org/1999/xlink">
<g><path style="opacity:0.966" fill="#030505" d="M 87.5,-0.5 C 88.8333,-0.5 90.1667,-0.5 91.5,-0.5C 110.698,3.19029 119.198,14.857 117,34.5C 113.059,48.2668 103.892,55.6001 89.5,56.5C 72.2437,54.744 62.9103,45.244 61.5,28C 62.7622,11.5771 71.4288,2.07712 87.5,-0.5 Z"/></g>
<g><path style="opacity:0.985" fill="#e41b20" d="M 179.5,165.5 C 179.5,172.5 179.5,179.5 179.5,186.5C 175.095,225.092 154.095,249.925 116.5,261C 111.833,261.667 107.167,261.667 102.5,261C 100.667,260.5 99.5,259.333 99,257.5C 98.6667,211.167 98.3333,164.833 98,118.5C 94.5477,110.339 89.5477,109.006 83,114.5C 81.5471,125.063 81.0471,135.73 81.5,146.5C 54.3736,159.23 27.3736,172.23 0.5,185.5C 0.737305,184.209 0.403972,183.209 -0.5,182.5C -0.5,175.833 -0.5,169.167 -0.5,162.5C 3.85912,108.148 33.5258,79.8149 88.5,77.5C 133.923,79.0922 162.757,101.759 175,145.5C 176.715,152.259 178.215,158.925 179.5,165.5 Z"/></g>
<g><path style="opacity:0.997" fill="#090707" d="M 81.5,146.5 C 81.5,151.5 81.5,156.5 81.5,161.5C 54.6142,174.443 27.6142,187.11 0.5,199.5C 0.5,194.833 0.5,190.167 0.5,185.5C 27.3736,172.23 54.3736,159.23 81.5,146.5 Z"/></g>
<g><path style="opacity:1" fill="#f6f6f6" d="M 81.5,161.5 C 81.5,165.167 81.5,168.833 81.5,172.5C 54.6206,185.44 27.6206,198.107 0.5,210.5C 0.5,206.833 0.5,203.167 0.5,199.5C 27.6142,187.11 54.6142,174.443 81.5,161.5 Z"/></g>
<g><path style="opacity:0.987" fill="#000000" d="M 81.5,172.5 C 81.6667,218.168 81.5,263.835 81,309.5C 74.24,344.427 53.4067,365.094 18.5,371.5C 14.5,371.5 10.5,371.5 6.5,371.5C 3.19232,370.192 0.858985,367.859 -0.5,364.5C -0.5,329.833 -0.5,295.167 -0.5,260.5C 0.496515,244.008 0.829848,227.342 0.5,210.5C 27.6206,198.107 54.6206,185.44 81.5,172.5 Z"/></g>
</svg>
